<svg id="OUTLINE" xmlns="http://www.w3.org/2000/svg" viewBox="0 0 126.82 77.12"><defs><style>.cls-1{fill:#fff;}.cls-2{fill:#ffc20e;}.cls-3{fill:#231f20;}</style></defs><title>IBL-T</title><path class="cls-1" d="M57,27.94V19.76a4.2,4.2,0,0,1,.79-0.06,4.83,4.83,0,0,1,.83.06v8.18a4.82,4.82,0,0,1-.83.06A4.19,4.19,0,0,1,57,27.94Z"/><path class="cls-1" d="M66.81,19.69l0.08,0.08v8.14A4.36,4.36,0,0,1,66,28a7,7,0,0,1-1-.06l-2.2-4.63q-0.48-1.05-.72-1.68h0q0.13,1.69.13,3.26v3a4.33,4.33,0,0,1-.76.06,3.92,3.92,0,0,1-.74-0.06V19.79a4,4,0,0,1,.91-0.08,7,7,0,0,1,1,.06l2.18,4.63,0.78,1.77h0q-0.12-1.74-.12-3.28V20.69a1.14,1.14,0,0,1,.2-0.77,0.88,0.88,0,0,1,.68-0.23h0.51Z"/><path class="cls-1" d="M73.94,27.4a2.25,2.25,0,0,1-1,.45A5.5,5.5,0,0,1,71.7,28h-1L69,28l-0.08-.07V19.82L69,19.75l1.4,0h1.43a3.8,3.8,0,0,1,1.67.32,2.7,2.7,0,0,1,1.06.89,3.63,3.63,0,0,1,.56,1.32,7.73,7.73,0,0,1,.16,1.62A7,7,0,0,1,75,25.92,3,3,0,0,1,73.94,27.4Zm-0.66-5.47a1.42,1.42,0,0,0-1.48-1H70.5v5.78h1.11l0.55,0a1.39,1.39,0,0,0,.42-0.12,1.44,1.44,0,0,0,.51-0.45,2.22,2.22,0,0,0,.3-0.65,4.26,4.26,0,0,0,.15-0.79q0-.42,0-0.88a6.52,6.52,0,0,0-.07-1A4.07,4.07,0,0,0,73.28,21.93Z"/><path class="cls-1" d="M76.8,27.94V19.76a4.2,4.2,0,0,1,.79-0.06,4.83,4.83,0,0,1,.83.06v8.18a4.82,4.82,0,0,1-.83.06A4.19,4.19,0,0,1,76.8,27.94Z"/><path class="cls-1" d="M84.77,22.82V22.7A2.9,2.9,0,0,0,84.69,22a1.66,1.66,0,0,0-.26-0.57A1.24,1.24,0,0,0,84,21a1.54,1.54,0,0,0-.68-0.14,1.33,1.33,0,0,0-1.27.79A5.5,5.5,0,0,0,81.62,24a3.43,3.43,0,0,0,.48,2,1.53,1.53,0,0,0,1.32.7,2.6,2.6,0,0,0,1-.21,4.9,4.9,0,0,0,1.12-.67,2,2,0,0,1,.48.47,1.49,1.49,0,0,1,.29.57,3.52,3.52,0,0,1-.62.49,5.09,5.09,0,0,1-1.61.65,4.21,4.21,0,0,1-.89.1,3,3,0,0,1-1.5-.34,2.86,2.86,0,0,1-1-.92,4,4,0,0,1-.56-1.35,7.27,7.27,0,0,1-.17-1.62A6.09,6.09,0,0,1,80.2,22a3.94,3.94,0,0,1,.71-1.34,2.92,2.92,0,0,1,1.05-.8,3.13,3.13,0,0,1,1.29-.27,4,4,0,0,1,1.28.19,3,3,0,0,1,1,.52,2.33,2.33,0,0,1,.61.77,2.1,2.1,0,0,1,.22.94,0.8,0.8,0,0,1-.91.9l-0.29,0Z"/><path class="cls-1" d="M89.26,25.89v0.74l0.84,0H93a3.55,3.55,0,0,1,0,.59A0.9,0.9,0,0,1,92,28H88.59a0.89,0.89,0,0,1-.68-0.26,1,1,0,0,1-.25-0.7V19.85l0.08-.08h5a3.26,3.26,0,0,1,.06.64,2.13,2.13,0,0,1-.13.71H89.25v2.06h2.8a2.31,2.31,0,0,1,0,1.32h-2.8v1.41Z"/><path class="cls-1" d="M62,41.77a2.25,2.25,0,0,1-1,.45,5.5,5.5,0,0,1-1.26.14h-1l-1.73,0L57,42.25V34.19l0.08-.07,1.4,0h1.43a3.8,3.8,0,0,1,1.67.32,2.7,2.7,0,0,1,1.06.89,3.63,3.63,0,0,1,.56,1.32,7.73,7.73,0,0,1,.16,1.62,7,7,0,0,1-.27,2.07A3,3,0,0,1,62,41.77ZM61.38,36.3a1.42,1.42,0,0,0-1.48-1H58.6v5.78h1.11l0.55,0a1.39,1.39,0,0,0,.42-0.12,1.44,1.44,0,0,0,.51-0.45,2.22,2.22,0,0,0,.3-0.65A4.26,4.26,0,0,0,61.65,39q0-.42,0-0.88a6.52,6.52,0,0,0-.07-1A4.07,4.07,0,0,0,61.38,36.3Z"/><path class="cls-1" d="M66.44,40.26V41l0.84,0H70.2a3.55,3.55,0,0,1,0,.59,0.9,0.9,0,0,1-1,.77H65.77a0.89,0.89,0,0,1-.68-0.26,1,1,0,0,1-.25-0.7V34.22l0.08-.08h5a3.26,3.26,0,0,1,.06.64,2.13,2.13,0,0,1-.13.71H66.43v2.06h2.8a2.31,2.31,0,0,1,0,1.32h-2.8v1.41Z"/><path class="cls-1" d="M74.4,34.12l1.59,0h1a3.18,3.18,0,0,1,2,.56,1.93,1.93,0,0,1,.71,1.61,1.8,1.8,0,0,1-.3,1,1.7,1.7,0,0,1-.8.66,2.08,2.08,0,0,1,.57.29,2.1,2.1,0,0,1,.48.48,2.32,2.32,0,0,1,.32.62,2.37,2.37,0,0,1-.64,2.46,3.35,3.35,0,0,1-2.17.62H76.07l-1.67,0-0.08-.07V34.19Zm1.51,1.11v2.19h1a1,1,0,0,0,1.2-1.1A1.11,1.11,0,0,0,78,35.64a0.88,0.88,0,0,0-.48-0.31,2.67,2.67,0,0,0-.72-0.08Q76.36,35.26,75.91,35.23Zm1.18,3.38H75.91v2.61H77a4.89,4.89,0,0,0,.56-0.05A1.07,1.07,0,0,0,78,41a1.13,1.13,0,0,0,.34-0.41,1.59,1.59,0,0,0,0-1.13,1.15,1.15,0,0,0-.69-0.7A1.72,1.72,0,0,0,77.09,38.61Z"/><path class="cls-1" d="M82.41,41.75a4.4,4.4,0,0,1-1.28-3.52,6.4,6.4,0,0,1,.23-1.81A3.73,3.73,0,0,1,82,35.08a3,3,0,0,1,1.09-.83,3.86,3.86,0,0,1,2.92,0,2.92,2.92,0,0,1,1.08.83,3.81,3.81,0,0,1,.68,1.34,6.42,6.42,0,0,1,.23,1.8,6.35,6.35,0,0,1-.23,1.8,3.81,3.81,0,0,1-.68,1.34,2.93,2.93,0,0,1-1.08.83,3.52,3.52,0,0,1-1.45.29A3.33,3.33,0,0,1,82.41,41.75Zm4-3.52q0-3-1.77-3t-1.77,3q0,3,1.77,3T86.36,38.23Z"/><path class="cls-1" d="M95.72,34.06l0.08,0.08v8.14a4.36,4.36,0,0,1-.93.08,7,7,0,0,1-1-.06l-2.2-4.63Q91.2,36.62,91,36h0Q91,37.7,91,39.27v3a4.33,4.33,0,0,1-.76.06,3.92,3.92,0,0,1-.74-0.06V34.16a4,4,0,0,1,.91-0.08,7,7,0,0,1,1,.06l2.18,4.63,0.78,1.77h0q-0.12-1.74-.12-3.28V35.05a1.14,1.14,0,0,1,.2-0.77,0.88,0.88,0,0,1,.68-0.23h0.51Z"/><path class="cls-1" d="M102.35,37.42V34.13a4.33,4.33,0,0,1,.8-0.06,4.75,4.75,0,0,1,.82.06v8.18a4.87,4.87,0,0,1-.82.06,4.44,4.44,0,0,1-.8-0.06V38.75h-3v3.56a5.42,5.42,0,0,1-1.62,0V34.13a5.51,5.51,0,0,1,1.62,0v3.29h3Z"/><path class="cls-1" d="M107.52,40.26V41l0.84,0h2.93a3.55,3.55,0,0,1,0,.59,0.9,0.9,0,0,1-1,.77h-3.37a0.89,0.89,0,0,1-.68-0.26,1,1,0,0,1-.25-0.7V34.22l0.08-.08h5a3.26,3.26,0,0,1,.06.64,2.13,2.13,0,0,1-.13.71h-3.42v2.06h2.8a2.31,2.31,0,0,1,0,1.32h-2.8v1.41Z"/><path class="cls-1" d="M118.92,34.13v5.23a3.09,3.09,0,0,1-.82,2.3,3.71,3.71,0,0,1-4.62,0,3.09,3.09,0,0,1-.82-2.3V34.14l0.07-.08h0.6a0.93,0.93,0,0,1,.71.25,1.13,1.13,0,0,1,.23.78v4.29q0,1.82,1.51,1.82t1.52-1.82V34.13A5.52,5.52,0,0,1,118.92,34.13Z"/><path class="cls-1" d="M126.43,36.6a2.44,2.44,0,0,1-.11.75A2.26,2.26,0,0,1,126,38a2.41,2.41,0,0,1-.47.49,2,2,0,0,1-.59.32,1.12,1.12,0,0,1,.52.37,2.48,2.48,0,0,1,.37.68l0.44,1.21a2.85,2.85,0,0,0,.24.51,1.27,1.27,0,0,0,.32.36,1.08,1.08,0,0,1-.45.35,1.59,1.59,0,0,1-.66.13,0.77,0.77,0,0,1-.57-0.21,2,2,0,0,1-.39-0.73L124.24,40a1.62,1.62,0,0,0-.4-0.64,1,1,0,0,0-.72-0.22h-0.73v3.14l-0.37,0-0.44,0a4.44,4.44,0,0,1-.78-0.06V34.19l0.08-.07,1.65,0h1.08a3.07,3.07,0,0,1,2.05.65A2.33,2.33,0,0,1,126.43,36.6Zm-4-1.3v2.63q0.62,0,1.1,0a1.29,1.29,0,0,0,0-2.59h-1.1Z"/><path class="cls-1" d="M59.68,55.31H61.9a3.38,3.38,0,0,1,0,.61,0.91,0.91,0,0,1-1,.78H57.9a0.91,0.91,0,0,1-.68-0.26,1,1,0,0,1-.25-0.7V48.51l0.08-.08h0.6a0.92,0.92,0,0,1,.71.25,1.13,1.13,0,0,1,.23.78v5.9C58.93,55.33,59.29,55.31,59.68,55.31Z"/><path class="cls-1" d="M64.75,54.63v0.74l0.84,0h2.93a3.55,3.55,0,0,1,0,.59,0.9,0.9,0,0,1-1,.77H64.08a0.89,0.89,0,0,1-.68-0.26,1,1,0,0,1-.25-0.7V48.58l0.08-.08h5a3.25,3.25,0,0,1,.06.64,2.12,2.12,0,0,1-.13.71H64.74v2.06h2.8a2.31,2.31,0,0,1,0,1.32h-2.8v1.41Zm-0.35-7.44L67,45.65a1.77,1.77,0,0,1,.42.52,1.6,1.6,0,0,1,.23.69L64.86,48a0.85,0.85,0,0,1-.3-0.32A1.15,1.15,0,0,1,64.41,47.19Z"/><path class="cls-1" d="M73,52.2h1.86a0.94,0.94,0,0,1,1.1,1v3.14a9.31,9.31,0,0,1-3.12.5,3.61,3.61,0,0,1-1.51-.3,2.87,2.87,0,0,1-1.08-.85,3.73,3.73,0,0,1-.65-1.33,6.45,6.45,0,0,1-.22-1.72,5.35,5.35,0,0,1,.31-1.92,3.91,3.91,0,0,1,.83-1.35,3.24,3.24,0,0,1,1.19-.79,4,4,0,0,1,1.42-.26,4.93,4.93,0,0,1,2.81.86,1.49,1.49,0,0,1-.26.68,1.7,1.7,0,0,1-.48.5,3.41,3.41,0,0,0-2-.68q-2.15,0-2.16,2.93t2.14,2.93a5.53,5.53,0,0,0,1.27-.14V54.34c0-.18,0-0.33,0-0.46s0-.24,0-0.33H73.69a0.84,0.84,0,0,1-.59-0.17,0.72,0.72,0,0,1-.17-0.54A1.92,1.92,0,0,1,73,52.2Z"/><path class="cls-1" d="M79.25,54.63v0.74l0.84,0H83a3.55,3.55,0,0,1,0,.59,0.9,0.9,0,0,1-1,.77H78.58a0.89,0.89,0,0,1-.68-0.26,1,1,0,0,1-.25-0.7V48.58l0.08-.08h5a3.25,3.25,0,0,1,.06.64,2.12,2.12,0,0,1-.13.71H79.24v2.06h2.8a2.31,2.31,0,0,1,0,1.32h-2.8v1.41Z"/><path class="cls-1" d="M90.12,51a2.45,2.45,0,0,1-.11.75,2.26,2.26,0,0,1-.32.63,2.4,2.4,0,0,1-.47.49,2,2,0,0,1-.59.32,1.13,1.13,0,0,1,.52.37,2.48,2.48,0,0,1,.37.68L90,55.42a2.86,2.86,0,0,0,.24.52,1.27,1.27,0,0,0,.32.36,1.08,1.08,0,0,1-.45.35,1.59,1.59,0,0,1-.66.13,0.77,0.77,0,0,1-.57-0.22,2,2,0,0,1-.39-0.73L87.94,54.4a1.63,1.63,0,0,0-.4-0.64,1,1,0,0,0-.72-0.22H86.09v3.14l-0.37,0-0.44,0a4.45,4.45,0,0,1-.78-0.06V48.56l0.08-.07,1.65,0h1.08a3.06,3.06,0,0,1,2.05.65A2.33,2.33,0,0,1,90.12,51Zm-4-1.3v2.63q0.62,0,1.1,0a1.29,1.29,0,0,0,0-2.59h-1.1Z"/><path class="cls-1" d="M61.09,69.19H58.24l-0.56,1.87a3.25,3.25,0,0,1-.71.06A2.16,2.16,0,0,1,56.22,71l-0.06-.08,2.67-8.06a7.14,7.14,0,0,1,1-.06,4.93,4.93,0,0,1,.9.07l2.62,8.06a1.62,1.62,0,0,1-.83.2A1.06,1.06,0,0,1,61.78,71a1.42,1.42,0,0,1-.35-0.68Zm-2.45-1.27h2.07L60.35,66.7q-0.41-1.37-.65-2.32H59.63q-0.11.51-.53,2Z"/><path class="cls-1" d="M70.62,62.87V68.1a3.09,3.09,0,0,1-.82,2.3,3.71,3.71,0,0,1-4.62,0,3.09,3.09,0,0,1-.82-2.3V62.88l0.07-.08H65a0.93,0.93,0,0,1,.71.25,1.12,1.12,0,0,1,.23.78v4.29q0,1.82,1.51,1.82T69,68.11V62.87A5.43,5.43,0,0,1,70.62,62.87Z"/><path class="cls-1" d="M78,65.08v6a5.51,5.51,0,0,1-1.62,0V64.2H74.3a3.8,3.8,0,0,1,0-1.34H80a2.42,2.42,0,0,1,.08.65,0.63,0.63,0,0,1-.2.52,1,1,0,0,1-.66.17H77.95v0.89Z"/><path class="cls-1" d="M86.76,65.33a2.45,2.45,0,0,1-.11.75,2.26,2.26,0,0,1-.32.63,2.4,2.4,0,0,1-.47.49,2,2,0,0,1-.59.32,1.13,1.13,0,0,1,.52.37,2.48,2.48,0,0,1,.37.68l0.44,1.21a2.86,2.86,0,0,0,.24.52,1.27,1.27,0,0,0,.32.36,1.08,1.08,0,0,1-.45.35,1.59,1.59,0,0,1-.66.13,0.77,0.77,0,0,1-.57-0.22,2,2,0,0,1-.39-0.73l-0.51-1.42a1.63,1.63,0,0,0-.4-0.64,1,1,0,0,0-.72-0.22H82.72V71l-0.37,0-0.44,0A4.45,4.45,0,0,1,81.13,71V62.93l0.08-.07,1.65,0h1.08a3.06,3.06,0,0,1,2.05.65A2.33,2.33,0,0,1,86.76,65.33Zm-4-1.3v2.63q0.62,0,1.1,0a1.29,1.29,0,0,0,0-2.59h-1.1Z"/><path class="cls-1" d="M92.52,69.19H89.67l-0.56,1.87a3.25,3.25,0,0,1-.71.06A2.16,2.16,0,0,1,87.65,71l-0.06-.08,2.67-8.06a7.14,7.14,0,0,1,1-.06,4.93,4.93,0,0,1,.9.07l2.62,8.06a1.62,1.62,0,0,1-.83.2A1.06,1.06,0,0,1,93.21,71a1.42,1.42,0,0,1-.35-0.68Zm-2.45-1.27h2.07L91.78,66.7q-0.41-1.37-.65-2.32H91.06q-0.11.51-.53,2Z"/><path class="cls-1" d="M98,69.67l1.74-6.8a2.8,2.8,0,0,1,.67-0.06,2.41,2.41,0,0,1,.77.11l0.07,0.1-2.31,8a8.9,8.9,0,0,1-1.1.06A1.89,1.89,0,0,1,96.95,71a0.91,0.91,0,0,1-.38-0.59L94.47,63a2.35,2.35,0,0,1,.93-0.24A0.86,0.86,0,0,1,96,63a1.22,1.22,0,0,1,.31.6l1.08,3.86q0.25,0.92.49,2.12A0.12,0.12,0,0,0,98,69.67Z"/><path class="cls-1" d="M105.88,69.19H103l-0.56,1.87a3.25,3.25,0,0,1-.71.06A2.16,2.16,0,0,1,101,71l-0.06-.08,2.67-8.06a7.14,7.14,0,0,1,1-.06,4.93,4.93,0,0,1,.9.07l2.62,8.06a1.62,1.62,0,0,1-.83.2,1.06,1.06,0,0,1-.69-0.18,1.42,1.42,0,0,1-.35-0.68Zm-2.45-1.27h2.07l-0.36-1.22q-0.41-1.37-.65-2.32h-0.07q-0.11.51-.53,2Z"/><path class="cls-1" d="M109.29,71V62.87a4.19,4.19,0,0,1,.79-0.06,4.82,4.82,0,0,1,.83.06V71a4.83,4.83,0,0,1-.83.06A4.2,4.2,0,0,1,109.29,71Z"/><path class="cls-1" d="M115.61,69.68h2.23a3.38,3.38,0,0,1,0,.61,0.91,0.91,0,0,1-1,.78h-2.91a0.91,0.91,0,0,1-.68-0.26,1,1,0,0,1-.25-0.7V62.88L113,62.8h0.6a0.92,0.92,0,0,1,.71.25,1.13,1.13,0,0,1,.23.78v5.9C114.87,69.7,115.23,69.68,115.61,69.68Z"/><path class="cls-1" d="M118.66,67.38L119,63l0.33,0,0.32,0,0.73,2.25q0.06,0.16.15,0.51c0.06,0.24.1,0.38,0.11,0.42h0a7.1,7.1,0,0,1,.26-0.94L121.68,63,122,63l0.32,0,0.34,4.37a0.89,0.89,0,0,1-.24,0l-0.23,0L122,64.73q0-.29-0.05-1.21h0l-1,3.17-0.26,0-0.23,0-1-3.17h0l0,0.61q0,0.45,0,.61l-0.18,2.65-0.25,0A0.85,0.85,0,0,1,118.66,67.38Z"/><path class="cls-1" d="M126.26,64.39a1.36,1.36,0,0,0-.05-0.38,0.92,0.92,0,0,0-.18-0.34,0.9,0.9,0,0,0-.32-0.24,1.12,1.12,0,0,0-.47-0.09,0.94,0.94,0,0,0-.85.48,2.59,2.59,0,0,0-.3,1.37,2.54,2.54,0,0,0,.31,1.37,1,1,0,0,0,.87.48,1.78,1.78,0,0,0,1.15-.51,0.58,0.58,0,0,1,.27.32,2,2,0,0,1-.66.45,2.11,2.11,0,0,1-.84.17,1.46,1.46,0,0,1-.74-0.18,1.43,1.43,0,0,1-.5-0.48,2.24,2.24,0,0,1-.29-0.71,3.87,3.87,0,0,1-.09-0.87,3.49,3.49,0,0,1,.13-1A2.12,2.12,0,0,1,124,63.5a1.46,1.46,0,0,1,1.17-.57,1.83,1.83,0,0,1,.63.1,1.58,1.58,0,0,1,.48.27,1.22,1.22,0,0,1,.31.38,1,1,0,0,1,.11.45,0.25,0.25,0,0,1-.27.29Z"/><rect class="cls-2" width="49.61" height="77.12"/><path class="cls-3" d="M28.6,29.2a1.13,1.13,0,0,0,1.13-1.12v-1.4h-7v-16A1.13,1.13,0,0,0,21.6,9.58H19.9V28.08A1.13,1.13,0,0,0,21,29.2H28.6Z"/><path class="cls-3" d="M36.5,33.45a10.86,10.86,0,0,1-3,5.51,12.5,12.5,0,0,1-8.87,3.36H24.49c-6.13-.07-10.23-3.29-11.34-8.87a21.14,21.14,0,0,0-3,0A14.33,14.33,0,0,0,24.48,45.16c7.66,0,13.7-4.78,15-11.74A21.43,21.43,0,0,0,36.5,33.45Z"/><path class="cls-1" d="M6.92,71.07V58.41A8.1,8.1,0,0,1,8.4,58.3a8.43,8.43,0,0,1,1.5.11V71.07a8.37,8.37,0,0,1-1.5.11A8.06,8.06,0,0,1,6.92,71.07Z"/><path class="cls-1" d="M12,58.37l2.57-.06,1.72,0a5.31,5.31,0,0,1,3.18.84,2.93,2.93,0,0,1,1.16,2.53,2.72,2.72,0,0,1-.46,1.52,2.69,2.69,0,0,1-1.18,1,2.84,2.84,0,0,1,.88.47,3.34,3.34,0,0,1,.71.76,4,4,0,0,1,.47.95,3.2,3.2,0,0,1,.18,1A3.32,3.32,0,0,1,20,70.27a5.61,5.61,0,0,1-3.44.92l-1.82,0L12,71.11,11.83,71V58.5Zm2.82,2v3h1.31a1.53,1.53,0,0,0,1.24-.44,1.62,1.62,0,0,0,.36-1.07,1.52,1.52,0,0,0-.37-1,1.58,1.58,0,0,0-1.23-.42H15.34Zm1.53,5.1H14.78v3.62q0.48,0,1.08,0A4.59,4.59,0,0,0,17,69a1.51,1.51,0,0,0,.87-0.54,1.82,1.82,0,0,0,.35-1.19A1.9,1.9,0,0,0,17.74,66,1.77,1.77,0,0,0,16.31,65.49Z"/><path class="cls-1" d="M27.27,68.57H30.5a7.5,7.5,0,0,1-.09,1.27,1.44,1.44,0,0,1-.59.91,2.12,2.12,0,0,1-1.32.38H24.3a1.6,1.6,0,0,1-1.72-1.72v-11l0.13-.13h1.09a1.61,1.61,0,0,1,1.73,1.89v8.48Q26.34,68.57,27.27,68.57Z"/><path class="cls-1" d="M34.7,67.24H31.56a10,10,0,0,1,0-2.32H34.7A10.15,10.15,0,0,1,34.7,67.24Z"/><path class="cls-1" d="M40.86,60.88l0,1.37v8.83a8.65,8.65,0,0,1-1.49.11,8,8,0,0,1-1.46-.11V60.88l-1.19,0H34.84a7,7,0,0,1,0-2.49H44a4.08,4.08,0,0,1,.15,1.18,1.23,1.23,0,0,1-.37,1,1.85,1.85,0,0,1-1.19.31H42l-1.17,0h0Z"/></svg>