<svg id="OUTLINE" xmlns="http://www.w3.org/2000/svg" viewBox="0 0 126.82 77.12"><defs><style>.cls-1{fill:#fff}.cls-3{fill:#231f20}</style></defs><path class="cls-1" d="M57 27.94v-8.18a4.2 4.2 0 0 1 .79-.06 4.83 4.83 0 0 1 .83.06v8.18a4.82 4.82 0 0 1-.83.06 4.19 4.19 0 0 1-.79-.06zM66.81 19.69l.08.08v8.14A4.36 4.36 0 0 1 66 28a7 7 0 0 1-1-.06l-2.2-4.63q-.48-1.05-.72-1.68.13 1.69.13 3.26v3a4.33 4.33 0 0 1-.76.06 3.92 3.92 0 0 1-.74-.06v-8.1a4 4 0 0 1 .91-.08 7 7 0 0 1 1 .06l2.18 4.63.78 1.77q-.12-1.74-.12-3.28v-2.2a1.14 1.14 0 0 1 .2-.77.88.88 0 0 1 .68-.23h.51zM73.94 27.4a2.25 2.25 0 0 1-1 .45 5.5 5.5 0 0 1-1.24.15H69l-.08-.07v-8.11l.08-.07h2.83a3.8 3.8 0 0 1 1.67.32 2.7 2.7 0 0 1 1.06.89 3.63 3.63 0 0 1 .56 1.32 7.73 7.73 0 0 1 .16 1.62 7 7 0 0 1-.28 2.02 3 3 0 0 1-1.06 1.48zm-.66-5.47a1.42 1.42 0 0 0-1.48-1h-1.3v5.78H72.16a1.39 1.39 0 0 0 .42-.12 1.44 1.44 0 0 0 .51-.45 2.22 2.22 0 0 0 .3-.65 4.26 4.26 0 0 0 .15-.79v-.88a6.52 6.52 0 0 0-.07-1 4.07 4.07 0 0 0-.19-.89zM76.8 27.94v-8.18a4.2 4.2 0 0 1 .79-.06 4.83 4.83 0 0 1 .83.06v8.18a4.82 4.82 0 0 1-.83.06 4.19 4.19 0 0 1-.79-.06zM84.77 22.82v-.12a2.9 2.9 0 0 0-.08-.7 1.66 1.66 0 0 0-.26-.57A1.24 1.24 0 0 0 84 21a1.54 1.54 0 0 0-.68-.14 1.33 1.33 0 0 0-1.27.79 5.5 5.5 0 0 0-.43 2.35 3.43 3.43 0 0 0 .48 2 1.53 1.53 0 0 0 1.32.7 2.6 2.6 0 0 0 1-.21 4.9 4.9 0 0 0 1.12-.67 2 2 0 0 1 .48.47 1.49 1.49 0 0 1 .29.57 3.52 3.52 0 0 1-.62.49 5.09 5.09 0 0 1-1.61.65 4.21 4.21 0 0 1-.89.1 3 3 0 0 1-1.5-.34 2.86 2.86 0 0 1-1-.92 4 4 0 0 1-.56-1.35 7.27 7.27 0 0 1-.17-1.62A6.09 6.09 0 0 1 80.2 22a3.94 3.94 0 0 1 .71-1.34 2.92 2.92 0 0 1 1.05-.8 3.13 3.13 0 0 1 1.29-.27 4 4 0 0 1 1.28.19 3 3 0 0 1 1 .52 2.33 2.33 0 0 1 .61.77 2.1 2.1 0 0 1 .22.94.8.8 0 0 1-.91.9h-.29zM89.26 25.89v.74H93a3.55 3.55 0 0 1 0 .59.9.9 0 0 1-1 .78h-3.41a.89.89 0 0 1-.68-.26 1 1 0 0 1-.25-.7v-7.19l.08-.08h5a3.26 3.26 0 0 1 .06.64 2.13 2.13 0 0 1-.13.71h-3.42v2.06h2.8a2.31 2.31 0 0 1 0 1.32h-2.8v1.41zM62 41.77a2.25 2.25 0 0 1-1 .45 5.5 5.5 0 0 1-1.26.14h-2.73l-.01-.11v-8.06l.08-.07h2.83a3.8 3.8 0 0 1 1.67.32 2.7 2.7 0 0 1 1.06.89 3.63 3.63 0 0 1 .56 1.32 7.73 7.73 0 0 1 .16 1.62 7 7 0 0 1-.27 2.07A3 3 0 0 1 62 41.77zm-.62-5.47a1.42 1.42 0 0 0-1.48-1h-1.3v5.78H60.26a1.39 1.39 0 0 0 .42-.12 1.44 1.44 0 0 0 .51-.45 2.22 2.22 0 0 0 .3-.65 4.26 4.26 0 0 0 .16-.86v-.88a6.52 6.52 0 0 0-.07-1 4.07 4.07 0 0 0-.2-.82zM66.44 40.26V41h3.76a3.55 3.55 0 0 1 0 .59.9.9 0 0 1-1 .77h-3.43a.89.89 0 0 1-.68-.26 1 1 0 0 1-.25-.7v-7.18l.08-.08h5a3.26 3.26 0 0 1 .06.64 2.13 2.13 0 0 1-.13.71h-3.42v2.06h2.8a2.31 2.31 0 0 1 0 1.32h-2.8v1.41zM74.4 34.12h2.59a3.18 3.18 0 0 1 2 .56 1.93 1.93 0 0 1 .71 1.61 1.8 1.8 0 0 1-.3 1 1.7 1.7 0 0 1-.8.66 2.08 2.08 0 0 1 .57.29 2.1 2.1 0 0 1 .48.48 2.32 2.32 0 0 1 .32.62 2.37 2.37 0 0 1-.64 2.46 3.35 3.35 0 0 1-2.17.62H74.4l-.08-.07v-8.16zm1.51 1.11v2.19h1a1 1 0 0 0 1.2-1.1 1.11 1.11 0 0 0-.11-.68.88.88 0 0 0-.48-.31 2.67 2.67 0 0 0-.72-.08q-.44.01-.89-.02zm1.18 3.38h-1.18v2.61H77a4.89 4.89 0 0 0 .56-.05A1.07 1.07 0 0 0 78 41a1.13 1.13 0 0 0 .34-.41 1.59 1.59 0 0 0 0-1.13 1.15 1.15 0 0 0-.69-.7 1.72 1.72 0 0 0-.56-.15zM82.41 41.75a4.4 4.4 0 0 1-1.28-3.52 6.4 6.4 0 0 1 .23-1.81 3.73 3.73 0 0 1 .64-1.34 3 3 0 0 1 1.09-.83 3.86 3.86 0 0 1 2.92 0 2.92 2.92 0 0 1 1.08.83 3.81 3.81 0 0 1 .68 1.34 6.42 6.42 0 0 1 .23 1.8 6.35 6.35 0 0 1-.23 1.8 3.81 3.81 0 0 1-.68 1.34 2.93 2.93 0 0 1-1.08.83 3.52 3.52 0 0 1-1.45.29 3.33 3.33 0 0 1-2.15-.73zm4-3.52q0-3-1.77-3t-1.77 3q0 3 1.77 3t1.72-3zM95.72 34.06l.08.08v8.14a4.36 4.36 0 0 1-.93.08 7 7 0 0 1-1-.06l-2.2-4.63Q91.2 36.62 91 36v6.27a4.33 4.33 0 0 1-.76.06 3.92 3.92 0 0 1-.74-.06v-8.11a4 4 0 0 1 .91-.08 7 7 0 0 1 1 .06l2.18 4.63.78 1.77q-.12-1.74-.12-3.28v-2.21a1.14 1.14 0 0 1 .2-.77.88.88 0 0 1 .68-.23h.51zM102.35 37.42v-3.29a4.33 4.33 0 0 1 .8-.06 4.75 4.75 0 0 1 .82.06v8.18a4.87 4.87 0 0 1-.82.06 4.44 4.44 0 0 1-.8-.06v-3.56h-3v3.56a5.42 5.42 0 0 1-1.62 0v-8.18a5.51 5.51 0 0 1 1.62 0v3.29h3zM107.52 40.26V41h3.77a3.55 3.55 0 0 1 0 .59.9.9 0 0 1-1 .77h-3.37a.89.89 0 0 1-.68-.26 1 1 0 0 1-.25-.7v-7.18l.08-.08h5a3.26 3.26 0 0 1 .06.64 2.13 2.13 0 0 1-.13.71h-3.42v2.06h2.8a2.31 2.31 0 0 1 0 1.32h-2.8v1.41zM118.92 34.13v5.23a3.09 3.09 0 0 1-.82 2.3 3.71 3.71 0 0 1-4.62 0 3.09 3.09 0 0 1-.82-2.3v-5.22l.07-.08h.6a.93.93 0 0 1 .71.25 1.13 1.13 0 0 1 .23.78v4.29q0 1.82 1.51 1.82t1.52-1.82v-5.25a5.52 5.52 0 0 1 1.62 0zM126.43 36.6a2.44 2.44 0 0 1-.11.75 2.26 2.26 0 0 1-.32.65 2.41 2.41 0 0 1-.47.49 2 2 0 0 1-.59.32 1.12 1.12 0 0 1 .52.37 2.48 2.48 0 0 1 .37.68l.44 1.21a2.85 2.85 0 0 0 .24.51 1.27 1.27 0 0 0 .32.36 1.08 1.08 0 0 1-.45.35 1.59 1.59 0 0 1-.66.13.77.77 0 0 1-.57-.21 2 2 0 0 1-.39-.73l-.52-1.48a1.62 1.62 0 0 0-.4-.64 1 1 0 0 0-.72-.22h-.73v3.14h-.81a4.44 4.44 0 0 1-.78-.06v-8.03l.08-.07h2.73a3.07 3.07 0 0 1 2.05.65 2.33 2.33 0 0 1 .77 1.83zm-4-1.3v2.63h1.1a1.29 1.29 0 0 0 0-2.59h-1.1zM59.68 55.31h2.22a3.38 3.38 0 0 1 0 .61.91.91 0 0 1-1 .78h-3a.91.91 0 0 1-.68-.26 1 1 0 0 1-.25-.7v-7.23l.08-.08h.6a.92.92 0 0 1 .71.25 1.13 1.13 0 0 1 .23.78v5.9c.34-.03.7-.05 1.09-.05zM64.75 54.63v.74h3.77a3.55 3.55 0 0 1 0 .59.9.9 0 0 1-1 .77h-3.44a.89.89 0 0 1-.68-.26 1 1 0 0 1-.25-.7v-7.19l.08-.08h5a3.25 3.25 0 0 1 .06.64 2.12 2.12 0 0 1-.13.71h-3.42v2.06h2.8a2.31 2.31 0 0 1 0 1.32h-2.8v1.41zm-.35-7.44l2.6-1.54a1.77 1.77 0 0 1 .42.52 1.6 1.6 0 0 1 .23.69L64.86 48a.85.85 0 0 1-.3-.32 1.15 1.15 0 0 1-.15-.49zM73 52.2h1.86a.94.94 0 0 1 1.1 1v3.14a9.31 9.31 0 0 1-3.12.5 3.61 3.61 0 0 1-1.51-.3 2.87 2.87 0 0 1-1.08-.85 3.73 3.73 0 0 1-.65-1.33 6.45 6.45 0 0 1-.22-1.72 5.35 5.35 0 0 1 .31-1.92 3.91 3.91 0 0 1 .83-1.35 3.24 3.24 0 0 1 1.19-.79 4 4 0 0 1 1.42-.26 4.93 4.93 0 0 1 2.81.86 1.49 1.49 0 0 1-.26.68 1.7 1.7 0 0 1-.48.5 3.41 3.41 0 0 0-2-.68q-2.15 0-2.16 2.93t2.14 2.93a5.53 5.53 0 0 0 1.27-.14v-1.06-.46-.33h-.76a.84.84 0 0 1-.59-.17.72.72 0 0 1-.17-.54 1.92 1.92 0 0 1 .07-.64zM79.25 54.63v.74H83a3.55 3.55 0 0 1 0 .59.9.9 0 0 1-1 .77h-3.42a.89.89 0 0 1-.68-.26 1 1 0 0 1-.25-.7v-7.19l.08-.08h5a3.25 3.25 0 0 1 .06.64 2.12 2.12 0 0 1-.13.71h-3.42v2.06h2.8a2.31 2.31 0 0 1 0 1.32h-2.8v1.41zM90.12 51a2.45 2.45 0 0 1-.11.75 2.26 2.26 0 0 1-.32.63 2.4 2.4 0 0 1-.47.49 2 2 0 0 1-.59.32 1.13 1.13 0 0 1 .52.37 2.48 2.48 0 0 1 .37.68l.48 1.18a2.86 2.86 0 0 0 .24.52 1.27 1.27 0 0 0 .32.36 1.08 1.08 0 0 1-.45.35 1.59 1.59 0 0 1-.66.13.77.77 0 0 1-.57-.22 2 2 0 0 1-.39-.73l-.55-1.43a1.63 1.63 0 0 0-.4-.64 1 1 0 0 0-.72-.22h-.73v3.14h-.81a4.45 4.45 0 0 1-.78-.06v-8.06l.08-.07h2.73a3.06 3.06 0 0 1 2.05.65 2.33 2.33 0 0 1 .76 1.86zm-4-1.3v2.63h1.1a1.29 1.29 0 0 0 0-2.59h-1.1zM61.09 69.19h-2.85l-.56 1.87a3.25 3.25 0 0 1-.71.06 2.16 2.16 0 0 1-.75-.12l-.06-.08 2.67-8.06a7.14 7.14 0 0 1 1-.06 4.93 4.93 0 0 1 .9.07l2.62 8.06a1.62 1.62 0 0 1-.83.2 1.06 1.06 0 0 1-.74-.13 1.42 1.42 0 0 1-.35-.68zm-2.45-1.27h2.07l-.36-1.22q-.41-1.37-.65-2.32h-.07q-.11.51-.53 2zM70.62 62.87v5.23a3.09 3.09 0 0 1-.82 2.3 3.71 3.71 0 0 1-4.62 0 3.09 3.09 0 0 1-.82-2.3v-5.22l.07-.08H65a.93.93 0 0 1 .71.25 1.12 1.12 0 0 1 .23.78v4.29q0 1.82 1.51 1.82T69 68.11v-5.24a5.43 5.43 0 0 1 1.62 0zM78 65.08v6a5.51 5.51 0 0 1-1.62 0V64.2H74.3a3.8 3.8 0 0 1 0-1.34H80a2.42 2.42 0 0 1 .08.65.63.63 0 0 1-.2.52 1 1 0 0 1-.66.17h-1.27v.89zM86.76 65.33a2.45 2.45 0 0 1-.11.75 2.26 2.26 0 0 1-.32.63 2.4 2.4 0 0 1-.47.49 2 2 0 0 1-.59.32 1.13 1.13 0 0 1 .52.37 2.48 2.48 0 0 1 .37.68l.44 1.21a2.86 2.86 0 0 0 .24.52 1.27 1.27 0 0 0 .32.36 1.08 1.08 0 0 1-.45.35 1.59 1.59 0 0 1-.66.13.77.77 0 0 1-.57-.22 2 2 0 0 1-.39-.73l-.51-1.42a1.63 1.63 0 0 0-.4-.64 1 1 0 0 0-.72-.22h-.74V71h-.81a4.45 4.45 0 0 1-.78 0v-8.07l.08-.07h2.73a3.06 3.06 0 0 1 2.05.65 2.33 2.33 0 0 1 .77 1.82zm-4-1.3v2.63h1.1a1.29 1.29 0 0 0 0-2.59h-1.1zM92.52 69.19h-2.85l-.56 1.87a3.25 3.25 0 0 1-.71.06 2.16 2.16 0 0 1-.75-.12l-.06-.08 2.67-8.06a7.14 7.14 0 0 1 1-.06 4.93 4.93 0 0 1 .9.07l2.62 8.06a1.62 1.62 0 0 1-.83.2 1.06 1.06 0 0 1-.74-.13 1.42 1.42 0 0 1-.35-.68zm-2.45-1.27h2.07l-.36-1.22q-.41-1.37-.65-2.32h-.07q-.11.51-.53 2zM98 69.67l1.74-6.8a2.8 2.8 0 0 1 .67-.06 2.41 2.41 0 0 1 .77.11l.07.1-2.31 8a8.9 8.9 0 0 1-1.1.06 1.89 1.89 0 0 1-.89-.08.91.91 0 0 1-.38-.59L94.47 63a2.35 2.35 0 0 1 .93-.24.86.86 0 0 1 .6.24 1.22 1.22 0 0 1 .31.6l1.08 3.86q.25.92.49 2.12a.12.12 0 0 0 .12.09zM105.88 69.19H103l-.56 1.87a3.25 3.25 0 0 1-.71.06A2.16 2.16 0 0 1 101 71l-.06-.08 2.67-8.06a7.14 7.14 0 0 1 1-.06 4.93 4.93 0 0 1 .9.07l2.62 8.06a1.62 1.62 0 0 1-.83.2 1.06 1.06 0 0 1-.69-.18 1.42 1.42 0 0 1-.35-.68zm-2.45-1.27h2.07l-.36-1.22q-.41-1.37-.65-2.32h-.07q-.11.51-.53 2zM109.29 71v-8.13a4.19 4.19 0 0 1 .79-.06 4.82 4.82 0 0 1 .83.06V71a4.83 4.83 0 0 1-.83.06 4.2 4.2 0 0 1-.79-.06zM115.61 69.68h2.23a3.38 3.38 0 0 1 0 .61.91.91 0 0 1-1 .78h-2.91a.91.91 0 0 1-.68-.26 1 1 0 0 1-.25-.7V62.8h.6a.92.92 0 0 1 .71.25 1.13 1.13 0 0 1 .23.78v5.9c.33-.03.69-.05 1.07-.05zM118.66 67.38L119 63h.65l.73 2.25q.06.16.15.51c.06.24.1.38.11.42a7.1 7.1 0 0 1 .26-.94l.78-2.24h.64l.34 4.37a.89.89 0 0 1-.24 0h-.23l-.19-2.64q0-.29-.05-1.21l-1 3.17h-.49l-1-3.17v1.22l-.18 2.65h-.25a.85.85 0 0 1-.37-.01zM126.26 64.39a1.36 1.36 0 0 0-.05-.38.92.92 0 0 0-.18-.34.9.9 0 0 0-.32-.24 1.12 1.12 0 0 0-.47-.09.94.94 0 0 0-.85.48 2.59 2.59 0 0 0-.3 1.37 2.54 2.54 0 0 0 .31 1.37 1 1 0 0 0 .87.48 1.78 1.78 0 0 0 1.15-.51.58.58 0 0 1 .27.32 2 2 0 0 1-.66.45 2.11 2.11 0 0 1-.84.17 1.46 1.46 0 0 1-.74-.18 1.43 1.43 0 0 1-.5-.48 2.24 2.24 0 0 1-.29-.71 3.87 3.87 0 0 1-.09-.87 3.49 3.49 0 0 1 .13-1 2.12 2.12 0 0 1 .3-.73 1.46 1.46 0 0 1 1.17-.57 1.83 1.83 0 0 1 .63.1 1.58 1.58 0 0 1 .48.27 1.22 1.22 0 0 1 .31.38 1 1 0 0 1 .11.45.25.25 0 0 1-.27.29z"/><path fill="#ffc20e" d="M0 0h49.61v77.12H0z"/><path class="cls-3" d="M28.6 29.2a1.13 1.13 0 0 0 1.13-1.12v-1.4h-7v-16a1.13 1.13 0 0 0-1.13-1.1h-1.7v18.5A1.13 1.13 0 0 0 21 29.2h7.6zM36.5 33.45a10.86 10.86 0 0 1-3 5.51 12.5 12.5 0 0 1-8.87 3.36h-.14c-6.13-.07-10.23-3.29-11.34-8.87a21.14 21.14 0 0 0-3 0 14.33 14.33 0 0 0 14.33 11.71c7.66 0 13.7-4.78 15-11.74a21.43 21.43 0 0 0-2.98.03z"/><path class="cls-1" d="M6.92 71.07V58.41a8.1 8.1 0 0 1 1.48-.11 8.43 8.43 0 0 1 1.5.11v12.66a8.37 8.37 0 0 1-1.5.11 8.06 8.06 0 0 1-1.48-.11zM12 58.37l2.57-.06h1.72a5.31 5.31 0 0 1 3.18.84 2.93 2.93 0 0 1 1.16 2.53 2.72 2.72 0 0 1-.46 1.52 2.69 2.69 0 0 1-1.18 1 2.84 2.84 0 0 1 .88.47 3.34 3.34 0 0 1 .71.76 4 4 0 0 1 .47.95 3.2 3.2 0 0 1 .18 1A3.32 3.32 0 0 1 20 70.27a5.61 5.61 0 0 1-3.44.92h-1.82L12 71.11l-.17-.11V58.5zm2.82 2v3h1.31a1.53 1.53 0 0 0 1.24-.44 1.62 1.62 0 0 0 .36-1.07 1.52 1.52 0 0 0-.37-1 1.58 1.58 0 0 0-1.23-.42h-.79zm1.53 5.1h-1.57v3.62h1.08A4.59 4.59 0 0 0 17 69a1.51 1.51 0 0 0 .87-.54 1.82 1.82 0 0 0 .35-1.19 1.9 1.9 0 0 0-.48-1.27 1.77 1.77 0 0 0-1.43-.51zM27.27 68.57h3.23a7.5 7.5 0 0 1-.09 1.27 1.44 1.44 0 0 1-.59.91 2.12 2.12 0 0 1-1.32.38h-4.2a1.6 1.6 0 0 1-1.72-1.72v-11l.13-.13h1.09a1.61 1.61 0 0 1 1.73 1.89v8.48q.81-.08 1.74-.08zM34.7 67.24h-3.14a10 10 0 0 1 0-2.32h3.14a10.15 10.15 0 0 1 0 2.32zM40.86 60.88v10.2a8.65 8.65 0 0 1-1.49.11 8 8 0 0 1-1.46-.11v-10.2h-3.07a7 7 0 0 1 0-2.49H44a4.08 4.08 0 0 1 .15 1.18 1.23 1.23 0 0 1-.37 1 1.85 1.85 0 0 1-1.19.31H40.83z"/></svg>