<svg id="OUTLINE" xmlns="http://www.w3.org/2000/svg" viewBox="0 0 126.87 77.12"><defs><style>.cls-1{fill:#fff;}.cls-2{fill:#ffc20e;}.cls-3{fill:#231f20;}</style></defs><title>IBL</title><path class="cls-1" d="M57.06,42.31V34.13a4.2,4.2,0,0,1,.79-0.06,4.82,4.82,0,0,1,.83.06v8.18a4.81,4.81,0,0,1-.83.06A4.18,4.18,0,0,1,57.06,42.31Z"/><path class="cls-1" d="M66.86,34.06l0.08,0.08v8.14a4.35,4.35,0,0,1-.93.08,7,7,0,0,1-1-.06l-2.2-4.63Q62.34,36.62,62.1,36h0q0.13,1.69.13,3.26v3a4.33,4.33,0,0,1-.76.06,3.93,3.93,0,0,1-.74-0.06V34.15a4,4,0,0,1,.91-0.08,7,7,0,0,1,1,.06l2.18,4.63,0.78,1.77h0q-0.12-1.74-.12-3.28V35.05a1.14,1.14,0,0,1,.2-0.77,0.87,0.87,0,0,1,.68-0.23h0.52Z"/><path class="cls-1" d="M74,41.77a2.25,2.25,0,0,1-1,.45,5.5,5.5,0,0,1-1.26.14h-1l-1.73,0-0.08-.07V34.19L69,34.12l1.4,0h1.43a3.81,3.81,0,0,1,1.67.32,2.71,2.71,0,0,1,1.06.89,3.63,3.63,0,0,1,.56,1.32,7.7,7.7,0,0,1,.16,1.62A7,7,0,0,1,75,40.29,3,3,0,0,1,74,41.77ZM73.33,36.3a1.43,1.43,0,0,0-1.48-1h-1.3v5.78h1.11l0.55,0a1.39,1.39,0,0,0,.42-0.12,1.45,1.45,0,0,0,.51-0.45,2.18,2.18,0,0,0,.3-0.65A4.26,4.26,0,0,0,73.59,39q0-.42,0-0.88a6.58,6.58,0,0,0-.07-1A4.13,4.13,0,0,0,73.33,36.3Z"/><path class="cls-1" d="M76.84,42.31V34.13a4.2,4.2,0,0,1,.79-0.06,4.82,4.82,0,0,1,.83.06v8.18a4.81,4.81,0,0,1-.83.06A4.18,4.18,0,0,1,76.84,42.31Z"/><path class="cls-1" d="M84.82,37.18V37.06a3,3,0,0,0-.08-0.72,1.65,1.65,0,0,0-.26-0.57A1.24,1.24,0,0,0,84,35.38a1.54,1.54,0,0,0-.68-0.14,1.33,1.33,0,0,0-1.27.79,5.49,5.49,0,0,0-.4,2.38,3.42,3.42,0,0,0,.49,2,1.53,1.53,0,0,0,1.32.7,2.6,2.6,0,0,0,1-.21,4.94,4.94,0,0,0,1.12-.67,2,2,0,0,1,.48.47,1.49,1.49,0,0,1,.29.57,3.53,3.53,0,0,1-.62.49,5.08,5.08,0,0,1-1.61.65,4.21,4.21,0,0,1-.89.1,3,3,0,0,1-1.5-.34,2.86,2.86,0,0,1-1-.92,4,4,0,0,1-.56-1.35A7.3,7.3,0,0,1,80,38.25a6.1,6.1,0,0,1,.26-1.89A4,4,0,0,1,81,35a2.92,2.92,0,0,1,1.05-.8A3.13,3.13,0,0,1,83.3,34a4,4,0,0,1,1.28.19,3,3,0,0,1,1,.52,2.33,2.33,0,0,1,.61.77,2.09,2.09,0,0,1,.22.94,0.8,0.8,0,0,1-.91.9l-0.29,0Z"/><path class="cls-1" d="M89.31,40.26V41l0.84,0h2.93a3.61,3.61,0,0,1,0,.59,0.9,0.9,0,0,1-1,.77H88.64A0.89,0.89,0,0,1,88,42.07a1,1,0,0,1-.25-0.7V34.21l0.08-.08h5a3.3,3.3,0,0,1,.06.64,2.14,2.14,0,0,1-.13.71H89.3v2.06h2.8a2.31,2.31,0,0,1,0,1.32h-2.8v1.41Z"/><path class="cls-1" d="M62.08,56.14a2.25,2.25,0,0,1-1,.45,5.5,5.5,0,0,1-1.26.14h-1l-1.73,0L57,56.62V48.56l0.08-.07,1.4,0h1.43a3.81,3.81,0,0,1,1.67.32,2.71,2.71,0,0,1,1.06.89A3.63,3.63,0,0,1,63.22,51a7.7,7.7,0,0,1,.16,1.62,7,7,0,0,1-.27,2.07A3,3,0,0,1,62.08,56.14Zm-0.66-5.47a1.43,1.43,0,0,0-1.48-1h-1.3v5.78h1.11l0.55,0a1.39,1.39,0,0,0,.42-0.12,1.45,1.45,0,0,0,.51-0.45,2.18,2.18,0,0,0,.3-0.65,4.26,4.26,0,0,0,.15-0.79q0-.42,0-0.88a6.58,6.58,0,0,0-.07-1A4.13,4.13,0,0,0,61.42,50.66Z"/><path class="cls-1" d="M66.49,54.63v0.74l0.84,0h2.93a3.61,3.61,0,0,1,0,.59,0.9,0.9,0,0,1-1,.77H65.82a0.89,0.89,0,0,1-.68-0.26,1,1,0,0,1-.25-0.7V48.58L65,48.5h5a3.3,3.3,0,0,1,.06.64,2.14,2.14,0,0,1-.13.71H66.48v2.06h2.8a2.31,2.31,0,0,1,0,1.32h-2.8v1.41Z"/><path class="cls-1" d="M74.45,48.49l1.59,0h1a3.19,3.19,0,0,1,2,.56,1.93,1.93,0,0,1,.71,1.61,1.79,1.79,0,0,1-.3,1,1.7,1.7,0,0,1-.8.66,2.07,2.07,0,0,1,.57.29,2.1,2.1,0,0,1,.48.48,2.31,2.31,0,0,1,.32.62,2.37,2.37,0,0,1-.64,2.46,3.35,3.35,0,0,1-2.17.62H76.11l-1.66,0-0.08-.07V48.56ZM76,49.6v2.19h1a1,1,0,0,0,1.2-1.1A1.12,1.12,0,0,0,78,50a0.88,0.88,0,0,0-.49-0.31,2.66,2.66,0,0,0-.72-0.08Q76.4,49.62,76,49.6ZM77.14,53H76v2.61h1.09a4.89,4.89,0,0,0,.56-0.05,1.07,1.07,0,0,0,.48-0.2,1.12,1.12,0,0,0,.34-0.41,1.44,1.44,0,0,0,.13-0.65,1.42,1.42,0,0,0-.08-0.49,1.19,1.19,0,0,0-.25-0.41,1.21,1.21,0,0,0-.44-0.29A1.73,1.73,0,0,0,77.14,53Z"/><path class="cls-1" d="M82.46,56.11a4.4,4.4,0,0,1-1.28-3.52,6.38,6.38,0,0,1,.23-1.81,3.74,3.74,0,0,1,.68-1.33,3,3,0,0,1,1.09-.83,3.86,3.86,0,0,1,2.92,0,2.91,2.91,0,0,1,1.08.83,3.8,3.8,0,0,1,.68,1.34,6.4,6.4,0,0,1,.23,1.8,6.33,6.33,0,0,1-.23,1.8,3.8,3.8,0,0,1-.68,1.34,2.92,2.92,0,0,1-1.08.83,3.52,3.52,0,0,1-1.45.29A3.33,3.33,0,0,1,82.46,56.11Zm4-3.52q0-3-1.77-3t-1.77,3q0,3,1.77,3T86.41,52.59Z"/><path class="cls-1" d="M95.76,48.43l0.08,0.08v8.14a4.35,4.35,0,0,1-.93.08,7,7,0,0,1-1-.06L91.73,52Q91.25,51,91,50.37h0q0.13,1.69.13,3.26v3a4.33,4.33,0,0,1-.76.06,3.93,3.93,0,0,1-.74-0.06V48.52a4,4,0,0,1,.91-0.08,7,7,0,0,1,1,.06l2.18,4.63,0.78,1.77h0q-0.12-1.74-.12-3.28V49.42a1.14,1.14,0,0,1,.2-0.77,0.87,0.87,0,0,1,.68-0.23h0.52Z"/><path class="cls-1" d="M102.39,51.79V48.5a4.34,4.34,0,0,1,.8-0.06,4.75,4.75,0,0,1,.82.06v8.18a4.88,4.88,0,0,1-.82.06,4.45,4.45,0,0,1-.8-0.06V53.12h-3v3.56a5.43,5.43,0,0,1-1.62,0V48.5a5.51,5.51,0,0,1,1.62,0v3.29h3Z"/><path class="cls-1" d="M107.57,54.63v0.74l0.84,0h2.93a3.61,3.61,0,0,1,0,.59,0.9,0.9,0,0,1-1,.77H106.9a0.89,0.89,0,0,1-.68-0.26,1,1,0,0,1-.25-0.7V48.58l0.08-.08h5a3.3,3.3,0,0,1,.06.64,2.14,2.14,0,0,1-.13.71h-3.42v2.06h2.8a2.31,2.31,0,0,1,0,1.32h-2.8v1.41Z"/><path class="cls-1" d="M119,48.5v5.23a3.09,3.09,0,0,1-.82,2.3,3.71,3.71,0,0,1-4.62,0,3.09,3.09,0,0,1-.82-2.3V48.51l0.07-.08h0.6a0.93,0.93,0,0,1,.71.25,1.13,1.13,0,0,1,.23.78v4.29q0,1.82,1.51,1.82t1.52-1.82V48.5A5.51,5.51,0,0,1,119,48.5Z"/><path class="cls-1" d="M126.47,51a2.43,2.43,0,0,1-.11.75,2.25,2.25,0,0,1-.32.63,2.4,2.4,0,0,1-.47.49,2,2,0,0,1-.59.32,1.12,1.12,0,0,1,.52.37,2.49,2.49,0,0,1,.37.68l0.44,1.21a2.82,2.82,0,0,0,.24.51,1.28,1.28,0,0,0,.32.36,1.08,1.08,0,0,1-.45.35,1.59,1.59,0,0,1-.66.13,0.77,0.77,0,0,1-.57-0.21,2,2,0,0,1-.39-0.73l-0.51-1.42a1.63,1.63,0,0,0-.4-0.64,1,1,0,0,0-.72-0.22h-0.73v3.14l-0.37,0-0.44,0a4.46,4.46,0,0,1-.78-0.06V48.56l0.08-.07,1.65,0h1.08a3.07,3.07,0,0,1,2.05.65A2.33,2.33,0,0,1,126.47,51Zm-4-1.3v2.63q0.62,0,1.1,0a1.29,1.29,0,0,0,0-2.59h-1.1Z"/><path class="cls-1" d="M59.72,69.68h2.23a3.29,3.29,0,0,1,0,.61,0.91,0.91,0,0,1-1,.78H58a0.91,0.91,0,0,1-.68-0.26,1,1,0,0,1-.25-0.7V62.88l0.08-.08h0.6a0.92,0.92,0,0,1,.71.25,1.13,1.13,0,0,1,.23.78v5.9C59,69.7,59.34,69.68,59.72,69.68Z"/><path class="cls-1" d="M64.8,69v0.74l0.84,0h2.93a3.61,3.61,0,0,1,0,.59,0.9,0.9,0,0,1-1,.77H64.13a0.89,0.89,0,0,1-.68-0.26,1,1,0,0,1-.25-0.7V63l0.08-.08h5a3.29,3.29,0,0,1,.06.64,2.13,2.13,0,0,1-.13.71H64.79v2.06h2.8a2.31,2.31,0,0,1,0,1.32H64.8V69Zm-0.35-7.44L67,60a1.77,1.77,0,0,1,.42.52,1.61,1.61,0,0,1,.23.69l-2.74,1.1a0.84,0.84,0,0,1-.3-0.32A1.14,1.14,0,0,1,64.45,61.56Z"/><path class="cls-1" d="M73.08,66.57h1.86a0.94,0.94,0,0,1,1.1,1v3.14a9.32,9.32,0,0,1-3.12.5,3.6,3.6,0,0,1-1.51-.3,2.87,2.87,0,0,1-1.08-.85,3.75,3.75,0,0,1-.65-1.33A6.45,6.45,0,0,1,69.46,67a5.36,5.36,0,0,1,.31-1.92,3.93,3.93,0,0,1,.83-1.35A3.25,3.25,0,0,1,71.78,63a4,4,0,0,1,1.42-.26,4.93,4.93,0,0,1,2.81.86,1.48,1.48,0,0,1-.26.68,1.69,1.69,0,0,1-.48.5,3.41,3.41,0,0,0-2-.68q-2.16,0-2.16,2.93t2.14,2.93a5.53,5.53,0,0,0,1.27-.14V68.71c0-.18,0-0.33,0-0.46s0-.24,0-0.33H73.73a0.84,0.84,0,0,1-.59-0.17A0.72,0.72,0,0,1,73,67.21,1.91,1.91,0,0,1,73.08,66.57Z"/><path class="cls-1" d="M79.3,69v0.74l0.84,0h2.93a3.61,3.61,0,0,1,0,.59,0.9,0.9,0,0,1-1,.77H78.63A0.89,0.89,0,0,1,78,70.81a1,1,0,0,1-.25-0.7V63l0.08-.08h5a3.29,3.29,0,0,1,.06.64,2.13,2.13,0,0,1-.13.71H79.29v2.06h2.8a2.31,2.31,0,0,1,0,1.32H79.3V69Z"/><path class="cls-1" d="M90.17,65.33a2.43,2.43,0,0,1-.11.75,2.25,2.25,0,0,1-.32.63,2.4,2.4,0,0,1-.47.49,2,2,0,0,1-.59.32,1.13,1.13,0,0,1,.52.37,2.49,2.49,0,0,1,.37.68L90,69.79a2.83,2.83,0,0,0,.24.52,1.28,1.28,0,0,0,.32.36,1.08,1.08,0,0,1-.45.35,1.59,1.59,0,0,1-.66.13,0.77,0.77,0,0,1-.57-0.22,2,2,0,0,1-.39-0.73L88,68.77a1.64,1.64,0,0,0-.4-0.64,1,1,0,0,0-.72-0.22H86.14V71l-0.37,0-0.44,0A4.46,4.46,0,0,1,84.54,71V62.93l0.08-.07,1.65,0h1.08a3.06,3.06,0,0,1,2.05.65A2.33,2.33,0,0,1,90.17,65.33Zm-4-1.3v2.63q0.62,0,1.1,0a1.29,1.29,0,0,0,0-2.59h-1.1Z"/><path class="cls-1" d="M91.37,67.37L91.71,63,92,63l0.32,0,0.73,2.25q0.06,0.16.15,0.51c0.06,0.24.1,0.38,0.11,0.42h0a7.1,7.1,0,0,1,.26-0.94L94.39,63l0.32,0L95,63l0.34,4.37a0.89,0.89,0,0,1-.24,0l-0.23,0-0.19-2.65q0-.29-0.05-1.21h0l-1,3.17-0.26,0-0.23,0-1-3.17h0q0,0.16,0,.61t0,0.61l-0.18,2.65-0.25,0A0.86,0.86,0,0,1,91.37,67.37Z"/><path class="cls-1" d="M99,64.39A1.4,1.4,0,0,0,98.92,64a0.94,0.94,0,0,0-.18-0.34,0.89,0.89,0,0,0-.32-0.24,1.12,1.12,0,0,0-.47-0.09,0.94,0.94,0,0,0-.85.48,2.6,2.6,0,0,0-.3,1.37,2.54,2.54,0,0,0,.31,1.37A1,1,0,0,0,98,67a1.78,1.78,0,0,0,1.15-.51,0.58,0.58,0,0,1,.27.32,2.05,2.05,0,0,1-.66.45,2.11,2.11,0,0,1-.84.17,1.46,1.46,0,0,1-.74-0.18,1.43,1.43,0,0,1-.5-0.48,2.26,2.26,0,0,1-.29-0.71,3.9,3.9,0,0,1-.09-0.87,3.51,3.51,0,0,1,.13-1,2.12,2.12,0,0,1,.35-0.72,1.46,1.46,0,0,1,1.17-.57,1.83,1.83,0,0,1,.63.1,1.58,1.58,0,0,1,.48.27,1.2,1.2,0,0,1,.31.38,1,1,0,0,1,.11.45,0.25,0.25,0,0,1-.27.29Z"/><rect class="cls-2" width="49.61" height="77.12"/><path class="cls-1" d="M7.44,71V52.77a11.68,11.68,0,0,1,2.14-.16,12.15,12.15,0,0,1,2.17.16V71a12,12,0,0,1-2.17.16A11.59,11.59,0,0,1,7.44,71Z"/><path class="cls-1" d="M16.06,52.72l3.71-.08,2.48,0a7.66,7.66,0,0,1,4.59,1.22,4.22,4.22,0,0,1,1.67,3.65,3.93,3.93,0,0,1-.67,2.19,3.88,3.88,0,0,1-1.71,1.47,4.09,4.09,0,0,1,1.27.68,4.8,4.8,0,0,1,1,1.1,5.75,5.75,0,0,1,.68,1.36,4.62,4.62,0,0,1,.25,1.51,4.78,4.78,0,0,1-1.75,4.08,8.09,8.09,0,0,1-5,1.33l-2.62,0-4-.08-0.19-.19v-18Zm4.07,2.92v4.31H22a2.21,2.21,0,0,0,1.79-.63,2.34,2.34,0,0,0,.52-1.54,2.2,2.2,0,0,0-.53-1.51,2.28,2.28,0,0,0-1.78-.6H20.94Q20.47,55.66,20.12,55.63ZM22.33,63H20.12v5.22q0.69,0,1.56,0a6.65,6.65,0,0,0,1.61-.13,2.18,2.18,0,0,0,1.25-.78A2.63,2.63,0,0,0,25,65.59a2.74,2.74,0,0,0-.65-1.82A2.55,2.55,0,0,0,22.33,63Z"/><path class="cls-1" d="M39.08,67.43h4.65a10.81,10.81,0,0,1-.13,1.83,2.09,2.09,0,0,1-.86,1.31,3.06,3.06,0,0,1-1.9.55h-6a2.31,2.31,0,0,1-2.49-2.49V52.77l0.19-.19h1.57q2.5,0,2.5,2.73V67.54Q37.73,67.43,39.08,67.43Z"/><path class="cls-3" d="M28.6,29.2a1.13,1.13,0,0,0,1.13-1.12v-1.4h-7v-16A1.13,1.13,0,0,0,21.6,9.58H19.9V28.08A1.13,1.13,0,0,0,21,29.2H28.6Z"/><path class="cls-3" d="M36.5,33.45a10.87,10.87,0,0,1-3,5.51,12.5,12.5,0,0,1-8.87,3.36H24.49c-6.13-.07-10.23-3.29-11.34-8.87a21.17,21.17,0,0,0-3,0A14.33,14.33,0,0,0,24.48,45.16c7.66,0,13.7-4.78,15-11.74A21.73,21.73,0,0,0,36.5,33.45Z"/></svg>