<svg id="OUTLINE" xmlns="http://www.w3.org/2000/svg" viewBox="0 0 126.87 77.12"><defs><style>.cls-1{fill:#fff}.cls-3{fill:#231f20}</style></defs><path class="cls-1" d="M57.06 42.31v-8.18a4.2 4.2 0 0 1 .79-.06 4.82 4.82 0 0 1 .83.06v8.18a4.81 4.81 0 0 1-.83.06 4.18 4.18 0 0 1-.79-.06zM66.86 34.06l.08.08v8.14a4.35 4.35 0 0 1-.93.08 7 7 0 0 1-1-.06l-2.2-4.63q-.47-1.05-.71-1.67.13 1.69.13 3.26v3a4.33 4.33 0 0 1-.76.06 3.93 3.93 0 0 1-.74-.06v-8.11a4 4 0 0 1 .91-.08 7 7 0 0 1 1 .06l2.18 4.63.78 1.77q-.12-1.74-.12-3.28v-2.2a1.14 1.14 0 0 1 .2-.77.87.87 0 0 1 .68-.23h.52zM74 41.77a2.25 2.25 0 0 1-1 .45 5.5 5.5 0 0 1-1.26.14h-2.73l-.08-.07v-8.1l.07-.07h2.83a3.81 3.81 0 0 1 1.67.32 2.71 2.71 0 0 1 1.06.89 3.63 3.63 0 0 1 .56 1.32 7.7 7.7 0 0 1 .16 1.62 7 7 0 0 1-.28 2.02 3 3 0 0 1-1 1.48zm-.67-5.47a1.43 1.43 0 0 0-1.48-1h-1.3v5.78H72.21a1.39 1.39 0 0 0 .42-.12 1.45 1.45 0 0 0 .51-.45 2.18 2.18 0 0 0 .3-.65 4.26 4.26 0 0 0 .15-.86v-.88a6.58 6.58 0 0 0-.07-1 4.13 4.13 0 0 0-.19-.82zM76.84 42.31v-8.18a4.2 4.2 0 0 1 .79-.06 4.82 4.82 0 0 1 .83.06v8.18a4.81 4.81 0 0 1-.83.06 4.18 4.18 0 0 1-.79-.06zM84.82 37.18v-.12a3 3 0 0 0-.08-.72 1.65 1.65 0 0 0-.26-.57 1.24 1.24 0 0 0-.48-.39 1.54 1.54 0 0 0-.68-.14 1.33 1.33 0 0 0-1.27.79 5.49 5.49 0 0 0-.4 2.38 3.42 3.42 0 0 0 .49 2 1.53 1.53 0 0 0 1.32.7 2.6 2.6 0 0 0 1-.21 4.94 4.94 0 0 0 1.12-.67 2 2 0 0 1 .48.47 1.49 1.49 0 0 1 .29.57 3.53 3.53 0 0 1-.62.49 5.08 5.08 0 0 1-1.61.65 4.21 4.21 0 0 1-.89.1 3 3 0 0 1-1.5-.34 2.86 2.86 0 0 1-1-.92 4 4 0 0 1-.56-1.35 7.3 7.3 0 0 1-.17-1.65 6.1 6.1 0 0 1 .26-1.89A4 4 0 0 1 81 35a2.92 2.92 0 0 1 1.05-.8 3.13 3.13 0 0 1 1.25-.2 4 4 0 0 1 1.28.19 3 3 0 0 1 1 .52 2.33 2.33 0 0 1 .61.77 2.09 2.09 0 0 1 .22.94.8.8 0 0 1-.91.9h-.29zM89.31 40.26V41h3.77a3.61 3.61 0 0 1 0 .59.9.9 0 0 1-1 .77h-3.44a.89.89 0 0 1-.64-.29 1 1 0 0 1-.25-.7v-7.16l.08-.08h5a3.3 3.3 0 0 1 .06.64 2.14 2.14 0 0 1-.13.71H89.3v2.06h2.8a2.31 2.31 0 0 1 0 1.32h-2.8v1.41zM62.08 56.14a2.25 2.25 0 0 1-1 .45 5.5 5.5 0 0 1-1.26.14h-2.73l-.09-.11v-8.06l.08-.07h2.83a3.81 3.81 0 0 1 1.67.32 2.71 2.71 0 0 1 1.06.89 3.63 3.63 0 0 1 .58 1.3 7.7 7.7 0 0 1 .16 1.62 7 7 0 0 1-.27 2.07 3 3 0 0 1-1.03 1.45zm-.66-5.47a1.43 1.43 0 0 0-1.48-1h-1.3v5.78H60.3a1.39 1.39 0 0 0 .42-.12 1.45 1.45 0 0 0 .51-.45 2.18 2.18 0 0 0 .3-.65 4.26 4.26 0 0 0 .15-.79v-.88a6.58 6.58 0 0 0-.07-1 4.13 4.13 0 0 0-.19-.9zM66.49 54.63v.74h3.77a3.61 3.61 0 0 1 0 .59.9.9 0 0 1-1 .77h-3.44a.89.89 0 0 1-.68-.26 1 1 0 0 1-.25-.7v-7.19l.11-.08h5a3.3 3.3 0 0 1 .06.64 2.14 2.14 0 0 1-.13.71h-3.45v2.06h2.8a2.31 2.31 0 0 1 0 1.32h-2.8v1.41zM74.45 48.49h2.59a3.19 3.19 0 0 1 2 .56 1.93 1.93 0 0 1 .71 1.61 1.79 1.79 0 0 1-.3 1 1.7 1.7 0 0 1-.8.66 2.07 2.07 0 0 1 .57.29 2.1 2.1 0 0 1 .48.48 2.31 2.31 0 0 1 .32.62 2.37 2.37 0 0 1-.64 2.46 3.35 3.35 0 0 1-2.17.62h-2.76l-.08-.07v-8.16zM76 49.6v2.19h1a1 1 0 0 0 1.2-1.1A1.12 1.12 0 0 0 78 50a.88.88 0 0 0-.49-.31 2.66 2.66 0 0 0-.72-.08q-.39.01-.79-.01zm1.14 3.4H76v2.61h1.09a4.89 4.89 0 0 0 .56-.05 1.07 1.07 0 0 0 .48-.2 1.12 1.12 0 0 0 .34-.41 1.44 1.44 0 0 0 .13-.65 1.42 1.42 0 0 0-.08-.49 1.19 1.19 0 0 0-.25-.41 1.21 1.21 0 0 0-.44-.29 1.73 1.73 0 0 0-.69-.11zM82.46 56.11a4.4 4.4 0 0 1-1.28-3.52 6.38 6.38 0 0 1 .23-1.81 3.74 3.74 0 0 1 .68-1.33 3 3 0 0 1 1.09-.83 3.86 3.86 0 0 1 2.92 0 2.91 2.91 0 0 1 1.08.83 3.8 3.8 0 0 1 .68 1.34 6.4 6.4 0 0 1 .23 1.8 6.33 6.33 0 0 1-.23 1.8 3.8 3.8 0 0 1-.68 1.34 2.92 2.92 0 0 1-1.08.83 3.52 3.52 0 0 1-1.45.29 3.33 3.33 0 0 1-2.19-.74zm4-3.52q0-3-1.77-3t-1.77 3q0 3 1.77 3t1.72-3zM95.76 48.43l.08.08v8.14a4.35 4.35 0 0 1-.93.08 7 7 0 0 1-1-.06L91.73 52q-.48-1-.73-1.63.13 1.69.13 3.26v3a4.33 4.33 0 0 1-.76.06 3.93 3.93 0 0 1-.74-.06v-8.11a4 4 0 0 1 .91-.08 7 7 0 0 1 1 .06l2.18 4.63.78 1.77q-.12-1.74-.12-3.28v-2.2a1.14 1.14 0 0 1 .2-.77.87.87 0 0 1 .68-.23h.52zM102.39 51.79V48.5a4.34 4.34 0 0 1 .8-.06 4.75 4.75 0 0 1 .82.06v8.18a4.88 4.88 0 0 1-.82.06 4.45 4.45 0 0 1-.8-.06v-3.56h-3v3.56a5.43 5.43 0 0 1-1.62 0V48.5a5.51 5.51 0 0 1 1.62 0v3.29h3zM107.57 54.63v.74h3.77a3.61 3.61 0 0 1 0 .59.9.9 0 0 1-1 .77h-3.44a.89.89 0 0 1-.68-.26 1 1 0 0 1-.25-.7v-7.19l.08-.08h5a3.3 3.3 0 0 1 .06.64 2.14 2.14 0 0 1-.13.71h-3.42v2.06h2.8a2.31 2.31 0 0 1 0 1.32h-2.8v1.41zM119 48.5v5.23a3.09 3.09 0 0 1-.82 2.3 3.71 3.71 0 0 1-4.62 0 3.09 3.09 0 0 1-.82-2.3v-5.22l.07-.08h.6a.93.93 0 0 1 .71.25 1.13 1.13 0 0 1 .23.78v4.29q0 1.82 1.51 1.82t1.52-1.82V48.5a5.51 5.51 0 0 1 1.62 0zM126.47 51a2.43 2.43 0 0 1-.11.75 2.25 2.25 0 0 1-.32.63 2.4 2.4 0 0 1-.47.49 2 2 0 0 1-.59.32 1.12 1.12 0 0 1 .52.37 2.49 2.49 0 0 1 .37.68l.44 1.21a2.82 2.82 0 0 0 .24.51 1.28 1.28 0 0 0 .32.36 1.08 1.08 0 0 1-.45.35 1.59 1.59 0 0 1-.66.13.77.77 0 0 1-.57-.21 2 2 0 0 1-.39-.73l-.51-1.42a1.63 1.63 0 0 0-.4-.64 1 1 0 0 0-.72-.22h-.73v3.14h-.81a4.46 4.46 0 0 1-.78-.06v-8.1l.08-.07h2.73a3.07 3.07 0 0 1 2.05.65 2.33 2.33 0 0 1 .76 1.86zm-4-1.3v2.63h1.1a1.29 1.29 0 0 0 0-2.59h-1.1zM59.72 69.68h2.23a3.29 3.29 0 0 1 0 .61.91.91 0 0 1-1 .78H58a.91.91 0 0 1-.68-.26 1 1 0 0 1-.25-.7v-7.23l.08-.08h.6a.92.92 0 0 1 .71.25 1.13 1.13 0 0 1 .23.78v5.9c.31-.03.65-.05 1.03-.05zM64.8 69v.74h3.77a3.61 3.61 0 0 1 0 .59.9.9 0 0 1-1 .77h-3.44a.89.89 0 0 1-.68-.26 1 1 0 0 1-.25-.7V63l.08-.08h5a3.29 3.29 0 0 1 .06.64 2.13 2.13 0 0 1-.13.71h-3.42v2.06h2.8a2.31 2.31 0 0 1 0 1.32H64.8V69zm-.35-7.44L67 60a1.77 1.77 0 0 1 .42.52 1.61 1.61 0 0 1 .23.69l-2.74 1.1a.84.84 0 0 1-.3-.32 1.14 1.14 0 0 1-.16-.43zM73.08 66.57h1.86a.94.94 0 0 1 1.1 1v3.14a9.32 9.32 0 0 1-3.12.5 3.6 3.6 0 0 1-1.51-.3 2.87 2.87 0 0 1-1.08-.85 3.75 3.75 0 0 1-.65-1.33 6.45 6.45 0 0 1-.22-1.73 5.36 5.36 0 0 1 .31-1.92 3.93 3.93 0 0 1 .83-1.35 3.25 3.25 0 0 1 1.18-.73 4 4 0 0 1 1.42-.26 4.93 4.93 0 0 1 2.81.86 1.48 1.48 0 0 1-.26.68 1.69 1.69 0 0 1-.48.5 3.41 3.41 0 0 0-2-.68q-2.16 0-2.16 2.93t2.14 2.93a5.53 5.53 0 0 0 1.27-.14v-1.11-.46-.33h-.79a.84.84 0 0 1-.59-.17.72.72 0 0 1-.14-.54 1.91 1.91 0 0 1 .08-.64zM79.3 69v.74h3.77a3.61 3.61 0 0 1 0 .59.9.9 0 0 1-1 .77h-3.44a.89.89 0 0 1-.63-.29 1 1 0 0 1-.25-.7V63l.08-.08h5a3.29 3.29 0 0 1 .06.64 2.13 2.13 0 0 1-.13.71h-3.47v2.06h2.8a2.31 2.31 0 0 1 0 1.32H79.3V69zM90.17 65.33a2.43 2.43 0 0 1-.11.75 2.25 2.25 0 0 1-.32.63 2.4 2.4 0 0 1-.47.49 2 2 0 0 1-.59.32 1.13 1.13 0 0 1 .52.37 2.49 2.49 0 0 1 .37.68l.43 1.22a2.83 2.83 0 0 0 .24.52 1.28 1.28 0 0 0 .32.36 1.08 1.08 0 0 1-.45.35 1.59 1.59 0 0 1-.66.13.77.77 0 0 1-.57-.22 2 2 0 0 1-.39-.73L88 68.77a1.64 1.64 0 0 0-.4-.64 1 1 0 0 0-.72-.22h-.74V71h-.81a4.46 4.46 0 0 1-.79 0v-8.07l.08-.07h2.73a3.06 3.06 0 0 1 2.05.65 2.33 2.33 0 0 1 .77 1.82zm-4-1.3v2.63h1.1a1.29 1.29 0 0 0 0-2.59h-1.1zM91.37 67.37l.34-4.37h.61l.73 2.25q.06.16.15.51c.06.24.1.38.11.42a7.1 7.1 0 0 1 .26-.94l.82-2.24H95l.34 4.37a.89.89 0 0 1-.24 0h-.23l-.19-2.65q0-.29-.05-1.21l-1 3.17h-.49l-1-3.17v1.22l-.18 2.65h-.25a.86.86 0 0 1-.34-.01zM99 64.39a1.4 1.4 0 0 0-.08-.39.94.94 0 0 0-.18-.34.89.89 0 0 0-.32-.24 1.12 1.12 0 0 0-.47-.09.94.94 0 0 0-.85.48 2.6 2.6 0 0 0-.3 1.37 2.54 2.54 0 0 0 .31 1.37A1 1 0 0 0 98 67a1.78 1.78 0 0 0 1.15-.51.58.58 0 0 1 .27.32 2.05 2.05 0 0 1-.66.45 2.11 2.11 0 0 1-.84.17 1.46 1.46 0 0 1-.74-.18 1.43 1.43 0 0 1-.5-.48 2.26 2.26 0 0 1-.29-.71 3.9 3.9 0 0 1-.09-.87 3.51 3.51 0 0 1 .13-1 2.12 2.12 0 0 1 .35-.72 1.46 1.46 0 0 1 1.17-.57 1.83 1.83 0 0 1 .63.1 1.58 1.58 0 0 1 .48.27 1.2 1.2 0 0 1 .31.38 1 1 0 0 1 .11.45.25.25 0 0 1-.27.29z"/><path fill="#ffc20e" d="M0 0h49.61v77.12H0z"/><path class="cls-1" d="M7.44 71V52.77a11.68 11.68 0 0 1 2.14-.16 12.15 12.15 0 0 1 2.17.16V71a12 12 0 0 1-2.17.16A11.59 11.59 0 0 1 7.44 71zM16.06 52.72l3.71-.08h2.48a7.66 7.66 0 0 1 4.59 1.22 4.22 4.22 0 0 1 1.67 3.65 3.93 3.93 0 0 1-.67 2.19 3.88 3.88 0 0 1-1.71 1.47 4.09 4.09 0 0 1 1.27.68 4.8 4.8 0 0 1 1 1.1 5.75 5.75 0 0 1 .68 1.36 4.62 4.62 0 0 1 .25 1.51 4.78 4.78 0 0 1-1.75 4.08 8.09 8.09 0 0 1-5 1.33h-2.62l-4-.08-.19-.19v-18zm4.07 2.92v4.31H22a2.21 2.21 0 0 0 1.79-.63 2.34 2.34 0 0 0 .52-1.54 2.2 2.2 0 0 0-.53-1.51 2.28 2.28 0 0 0-1.78-.6h-1.06q-.47-.01-.82-.04zm2.2 7.36h-2.21v5.22h1.56a6.65 6.65 0 0 0 1.61-.13 2.18 2.18 0 0 0 1.25-.78 2.63 2.63 0 0 0 .46-1.72 2.74 2.74 0 0 0-.65-1.82 2.55 2.55 0 0 0-2.02-.77zM39.08 67.43h4.65a10.81 10.81 0 0 1-.13 1.83 2.09 2.09 0 0 1-.86 1.31 3.06 3.06 0 0 1-1.9.55h-6a2.31 2.31 0 0 1-2.49-2.49V52.77l.19-.19h1.57q2.5 0 2.5 2.73v12.23q1.12-.11 2.47-.11z"/><path class="cls-3" d="M28.6 29.2a1.13 1.13 0 0 0 1.13-1.12v-1.4h-7v-16a1.13 1.13 0 0 0-1.13-1.1h-1.7v18.5A1.13 1.13 0 0 0 21 29.2h7.6zM36.5 33.45a10.87 10.87 0 0 1-3 5.51 12.5 12.5 0 0 1-8.87 3.36h-.14c-6.13-.07-10.23-3.29-11.34-8.87a21.17 21.17 0 0 0-3 0 14.33 14.33 0 0 0 14.33 11.71c7.66 0 13.7-4.78 15-11.74a21.73 21.73 0 0 0-2.98.03z"/></svg>