<svg id="Layer_1" data-name="Layer 1" xmlns="http://www.w3.org/2000/svg" xmlns:xlink="http://www.w3.org/1999/xlink" viewBox="0 0 536 612"><defs><style>.cls-1{fill:none;}.cls-2{clip-path:url(#clip-path);}</style><clipPath id="clip-path"><rect class="cls-1" x="4.38" y="4" width="526.75" height="602"/></clipPath></defs><title>recompenses</title><g class="cls-2"><path d="M528.95,504.91L454.31,355.63A224.15,224.15,0,0,0,493,229.44C493,105.13,391.9,4,267.59,4S42.16,105.13,42.16,229.44a224.15,224.15,0,0,0,38.72,126.2L6.24,504.91A17.64,17.64,0,0,0,22,530.44h85.63L159,598.95a17.64,17.64,0,0,0,29.89-2.7l70.77-141.53c2.63,0.09,5.26.16,7.91,0.16s5.29-.06,7.91-0.16l70.77,141.53a17.63,17.63,0,0,0,29.88,2.7l51.39-68.51h85.63a17.64,17.64,0,0,0,15.77-25.53h0Zm-358.82,50-39.55-52.73a17.63,17.63,0,0,0-14.11-7.05H50.55l54.73-109.45a225.35,225.35,0,0,0,117.16,64.61ZM77.43,229.44c0-104.86,85.31-190.16,190.16-190.16s190.16,85.31,190.16,190.16S372.45,419.6,267.59,419.6,77.43,334.29,77.43,229.44h0ZM418.72,495.16a17.65,17.65,0,0,0-14.11,7.05l-39.55,52.73L312.75,450.33a225.35,225.35,0,0,0,117.17-64.62l54.72,109.45H418.72Zm0,0"/></g><path d="M357.62,258.69l49.25-58.79a17.63,17.63,0,0,0-9.24-28.43l-74.4-18.61-40.7-65a17.64,17.64,0,0,0-29.9,0l-40.69,65-74.4,18.61a17.63,17.63,0,0,0-9.24,28.43l49.25,58.79-5.3,76.5a17.63,17.63,0,0,0,24.19,17.58l71.13-28.67,71.13,28.67a17.64,17.64,0,0,0,24.19-17.58ZM326,241.48A17.62,17.62,0,0,0,321.95,254l3.83,55.5-51.59-20.8a17.63,17.63,0,0,0-13.19,0l-51.59,20.8L213.25,254a17.66,17.66,0,0,0-4.08-12.55l-35.72-42.64,54-13.5a17.63,17.63,0,0,0,10.67-7.75l29.51-47.16,29.52,47.16a17.62,17.62,0,0,0,10.67,7.75l54,13.5Zm0,0"/></svg>