<svg id="Layer_1" data-name="Layer 1" xmlns="http://www.w3.org/2000/svg" viewBox="0 0 998 992"><title>video</title><path d="M475,5h44c2,0.29,3.91.75,5.87,0.85A462.52,462.52,0,0,1,623.8,21.61Q793.41,68.26,896.23,211.1c49.8,69.27,78.83,146.77,87.91,231.65C985.21,452.82,986,462.92,987,473v44c-0.29,2-.76,3.9-0.86,5.86a445.18,445.18,0,0,1-11.56,82q-46,190.95-209.37,300.09c-65.41,43.59-137.74,68.92-216,77.2C539.18,983.2,529.09,984,519,985H475c-2-.29-3.9-0.75-5.87-0.86a470.55,470.55,0,0,1-141.7-29.38q-164.55-62-254.08-213.61C38.11,681.42,17.2,616.73,9.91,547.71,8.83,537.49,8,527.24,7,517q0-22,0-44c0.62-6.59,1.31-13.17,1.85-19.77A469.3,469.3,0,0,1,41.68,313.84Q108,150.64,262.11,65c56.7-31.5,117.6-50.26,182.13-57.1C454.48,6.82,464.75,6,475,5ZM895.11,494.76C894.91,274.55,716.86,96.9,496.42,97,277,97,99,275.26,99,495c0,220.3,178.27,398.2,398.93,398.06C717.25,892.9,895.32,714.37,895.11,494.76Z"/><path d="M390.5,505.78q0-85.24,0-170.47c0-11,2.75-20.7,10.91-28.47,12.72-12.11,30.47-13.05,44.66-2.2Q521,362,596,419.5q38.09,29.17,76.15,58.37c14.82,11.43,19.17,28.88,10.61,43.79a40,40,0,0,1-10.08,11.53Q558.82,620.42,444.72,707.31c-10.19,7.77-21.39,8.85-33,3.82-12.11-5.26-18.94-14.82-20.73-27.89a55.51,55.51,0,0,1-.23-7.49q0-85,0-170H390.5Z"/></svg>